<svg xmlns="http://www.w3.org/2000/svg" xmlns:xlink="http://www.w3.org/1999/xlink" viewBox="0 0 1000 1000"><defs><style>.a{fill:none;}.b{fill:url(#a);}.c{fill:url(#b);}.d{fill:url(#c);}.e{fill:url(#d);}.f{fill:url(#e);}.g{fill:url(#f);}.h{fill:url(#g);}.i{fill:url(#h);}.j{fill:url(#i);}.k{fill:url(#j);}.l{fill:url(#k);}.m{fill:url(#l);}.n{fill:url(#m);}.o{fill:url(#n);}.p{fill:url(#o);}.q{fill:url(#p);}.r{fill:url(#q);}.s{fill:url(#r);}.t{fill:url(#s);}.u{fill:url(#t);}.v{fill:url(#u);}</style><linearGradient id="a" x1="-2372.96657" y1="-4508.58638" x2="-2199.76662" y2="-4508.58638" gradientTransform="matrix(0.5, -0.86603, -0.86603, -0.5, -2642.2881, -3965.60171)" gradientUnits="userSpaceOnUse"><stop offset="0" stop-color="#36b336"/><stop offset="1" stop-color="#36b3b3"/></linearGradient><linearGradient id="b" x1="-2188.94082" y1="-4527.33666" x2="-2275.54272" y2="-4677.33555" gradientTransform="matrix(0.5, -0.86603, -0.86603, -0.5, -2642.2881, -3965.60171)" gradientUnits="userSpaceOnUse"><stop offset="0" stop-color="#b33636"/><stop offset="1" stop-color="#b3b336"/></linearGradient><linearGradient id="c" x1="-2329.66707" y1="-4596.0861" x2="-2286.36612" y2="-4521.08666" gradientTransform="matrix(0.5, -0.86603, -0.86603, -0.5, -2642.2881, -3965.60171)" gradientUnits="userSpaceOnUse"><stop offset="0" stop-color="#b33636"/><stop offset="1" stop-color="#b336b3"/></linearGradient><linearGradient id="d" x1="-2286.36761" y1="-4521.08642" x2="-2243.06666" y2="-4596.08587" gradientTransform="matrix(0.5, -0.86603, -0.86603, -0.5, -2642.2881, -3965.60171)" gradientUnits="userSpaceOnUse"><stop offset="0" stop-color="#3636b3"/><stop offset="1" stop-color="#36b3b3"/></linearGradient><linearGradient id="e" x1="-2275.54337" y1="-4377.33668" x2="-2362.14527" y2="-4527.33557" xlink:href="#b"/><linearGradient id="f" x1="-2372.97014" y1="-4371.08643" x2="-2329.66919" y2="-4446.08588" xlink:href="#d"/><linearGradient id="g" x1="-2329.66916" y1="-4446.0864" x2="-2416.26914" y2="-4446.0864" gradientTransform="matrix(0.5, -0.86603, -0.86603, -0.5, -2642.2881, -3965.60171)" gradientUnits="userSpaceOnUse"><stop offset="0" stop-color="#36b336"/><stop offset="1" stop-color="#b3b336"/></linearGradient><linearGradient id="h" x1="-2286.36693" y1="-4358.58804" x2="-2113.16698" y2="-4358.58804" xlink:href="#a"/><linearGradient id="i" x1="-2102.34118" y1="-4377.33832" x2="-2188.94308" y2="-4527.33721" xlink:href="#b"/><linearGradient id="j" x1="-2210.59134" y1="-4527.33698" x2="-2297.19324" y2="-4377.33809" gradientTransform="matrix(0.5, -0.86603, -0.86603, -0.5, -2642.2881, -3965.60171)" gradientUnits="userSpaceOnUse"><stop offset="0" stop-color="#3636b3"/><stop offset="1" stop-color="#b336b3"/></linearGradient><linearGradient id="k" x1="-2243.06742" y1="-4446.08777" x2="-2199.76647" y2="-4371.08832" xlink:href="#c"/><linearGradient id="l" x1="-2199.76795" y1="-4371.0881" x2="-2156.467" y2="-4446.08754" xlink:href="#d"/><linearGradient id="m" x1="-2156.46697" y1="-4446.08804" x2="-2243.06694" y2="-4446.08804" xlink:href="#g"/><linearGradient id="n" x1="-2113.16474" y1="-4358.58969" x2="-1939.96479" y2="-4358.58969" xlink:href="#a"/><linearGradient id="o" x1="-1929.13899" y1="-4377.33996" x2="-2015.74089" y2="-4527.33885" xlink:href="#b"/><linearGradient id="p" x1="-2037.38915" y1="-4527.33864" x2="-2123.99105" y2="-4377.33975" xlink:href="#j"/><linearGradient id="q" x1="-2069.86523" y1="-4446.08941" x2="-2026.56428" y2="-4371.08996" xlink:href="#c"/><linearGradient id="r" x1="-2015.74154" y1="-4227.33998" x2="-2102.34344" y2="-4377.33887" xlink:href="#b"/><linearGradient id="s" x1="-2123.99169" y1="-4377.33865" x2="-2210.59359" y2="-4227.33976" xlink:href="#j"/><linearGradient id="t" x1="-2069.86733" y1="-4296.0897" x2="-2156.4673" y2="-4296.0897" xlink:href="#g"/><pattern id="u" width="173.20507" height="299.99334" patternTransform="translate(-165.51451 -239.70198) scale(1.26)" patternUnits="userSpaceOnUse" viewBox="0 0 173.205 299.993"><rect class="a" width="173.20507" height="299.99334"/><polygon class="b" points="173.204 199.996 173.204 249.994 129.904 274.993 129.904 324.992 86.604 349.991 86.603 249.993 173.204 199.996"/><polygon class="c" points="173.204 199.996 259.806 249.996 259.808 349.993 216.506 324.993 216.506 274.994 173.204 249.994 173.204 199.996"/><polygon class="d" points="129.904 274.993 173.205 299.993 173.206 349.992 129.904 324.992 129.904 274.993"/><polygon class="e" points="173.204 249.994 216.506 274.994 173.205 299.993 129.904 274.993 173.204 249.994"/><polygon class="f" points="-0.001 199.996 86.601 249.996 86.603 349.993 43.301 324.993 43.301 274.994 -0.001 249.994 -0.001 199.996"/><polygon class="g" points="-0.001 249.994 43.301 274.994 0 299.993 -43.301 274.993 -0.001 249.994"/><polygon class="h" points="43.301 274.994 43.301 324.993 0.001 349.992 0 299.993 43.301 274.994"/><polygon class="i" points="86.601 49.999 86.602 99.998 43.301 124.997 43.302 174.996 0.001 199.994 0 99.997 86.601 49.999"/><polygon class="j" points="86.601 49.999 173.204 99.999 173.205 199.997 129.904 174.997 129.903 124.998 86.602 99.998 86.601 49.999"/><polygon class="k" points="129.904 174.997 173.205 199.997 86.604 249.994 0.001 199.994 43.302 174.996 86.603 199.996 129.904 174.997"/><polygon class="l" points="43.301 124.997 86.603 149.997 86.603 199.996 43.302 174.996 43.301 124.997"/><polygon class="m" points="86.602 99.998 129.903 124.998 86.603 149.997 43.301 124.997 86.602 99.998"/><polygon class="n" points="129.903 124.998 129.904 174.997 86.603 199.996 86.603 149.997 129.903 124.998"/><polygon class="o" points="173.204 -99.998 173.204 -49.999 129.904 -25 129.904 24.999 86.604 49.998 86.603 -50 173.204 -99.998"/><polygon class="p" points="173.204 -99.998 259.806 -49.998 259.808 50 216.506 25 216.506 -24.999 173.204 -49.999 173.204 -99.998"/><polygon class="q" points="216.506 25 259.808 50 173.206 99.998 86.604 49.998 129.904 24.999 173.206 49.999 216.506 25"/><polygon class="r" points="129.904 -25 173.205 0 173.206 49.999 129.904 24.999 129.904 -25"/><polygon class="s" points="-0.001 -99.998 86.601 -49.998 86.603 50 43.301 25 43.301 -24.999 -0.001 -49.999 -0.001 -99.998"/><polygon class="t" points="43.301 25 86.603 50 0.001 99.998 -86.601 49.998 -43.301 24.999 0.001 49.999 43.301 25"/><polygon class="u" points="43.301 -24.999 43.301 25 0.001 49.999 0 0 43.301 -24.999"/></pattern></defs><rect class="v" width="1000" height="1000"/></svg>