<svg xmlns="http://www.w3.org/2000/svg" xmlns:xlink="http://www.w3.org/1999/xlink" viewBox="0 0 1000 1000"><defs><style>.a{fill:none;}.b{fill:url(#a);}.c{fill:url(#b);}.d{fill:url(#c);}.e{fill:url(#d);}.f{fill:url(#e);}.g{fill:url(#f);}.h{fill:url(#g);}.i{fill:url(#h);}.j{fill:url(#i);}.k{fill:url(#j);}.l{fill:url(#k);}.m{fill:url(#l);}.n{fill:url(#m);}.o{fill:url(#n);}.p{fill:url(#o);}.q{fill:url(#p);}.r{fill:url(#q);}.s{fill:url(#r);}.t{fill:url(#s);}.u{fill:url(#t);}.v{fill:url(#u);}.w{fill:url(#v);}.x{fill:url(#w);}.y{fill:url(#x);}.z{fill:url(#y);}.aa{fill:url(#z);}.ab{fill:url(#aa);}.ac{fill:url(#ab);}.ad{fill:url(#ac);}.ae{fill:url(#ad);}.af{fill:url(#ae);}.ag{fill:url(#af);}.ah{fill:url(#ag);}.ai{fill:url(#ah);}.aj{fill:url(#ai);}.ak{fill:url(#aj);}.al{fill:url(#ak);}.am{fill:url(#al);}.an{fill:url(#am);}.ao{fill:url(#an);}.ap{fill:url(#ao);}.aq{fill:url(#ap);}.ar{fill:url(#aq);}.as{fill:url(#ar);}.at{fill:url(#as);}.au{fill:url(#at);}.av{fill:url(#au);}.aw{fill:url(#av);}.ax{fill:url(#aw);}.ay{fill:url(#ax);}.az{fill:url(#ay);}</style><linearGradient id="a" x1="-2292.66554" y1="-4785.66068" x2="-2119.46559" y2="-4785.66068" gradientTransform="matrix(0.5, -0.86603, -0.86603, -0.5, -2922.39199, -4034.59615)" gradientUnits="userSpaceOnUse"><stop offset="0" stop-color="#1f991f"/><stop offset="1" stop-color="#1f9999"/></linearGradient><linearGradient id="b" x1="-2108.63979" y1="-4804.41096" x2="-2195.24169" y2="-4954.40985" gradientTransform="matrix(0.5, -0.86603, -0.86603, -0.5, -2922.39199, -4034.59615)" gradientUnits="userSpaceOnUse"><stop offset="0" stop-color="#991f1f"/><stop offset="1" stop-color="#99991f"/></linearGradient><linearGradient id="c" x1="-2249.36603" y1="-4873.1604" x2="-2206.06508" y2="-4798.16096" gradientTransform="matrix(0.5, -0.86603, -0.86603, -0.5, -2922.39199, -4034.59615)" gradientUnits="userSpaceOnUse"><stop offset="0" stop-color="#991f1f"/><stop offset="1" stop-color="#991f99"/></linearGradient><linearGradient id="d" x1="-2206.0666" y1="-4798.16073" x2="-2162.76565" y2="-4873.16018" gradientTransform="matrix(0.5, -0.86603, -0.86603, -0.5, -2922.39199, -4034.59615)" gradientUnits="userSpaceOnUse"><stop offset="0" stop-color="#1f1f99"/><stop offset="1" stop-color="#1f9999"/></linearGradient><linearGradient id="e" x1="-2195.24234" y1="-4654.41098" x2="-2281.84424" y2="-4804.40986" xlink:href="#b"/><linearGradient id="f" x1="-2292.66914" y1="-4648.16074" x2="-2249.36819" y2="-4723.16018" xlink:href="#d"/><linearGradient id="g" x1="-2249.36812" y1="-4723.1607" x2="-2335.9681" y2="-4723.1607" gradientTransform="matrix(0.5, -0.86603, -0.86603, -0.5, -2922.39199, -4034.59615)" gradientUnits="userSpaceOnUse"><stop offset="0" stop-color="#1f991f"/><stop offset="1" stop-color="#99991f"/></linearGradient><linearGradient id="h" x1="-2206.0659" y1="-4635.66234" x2="-2032.86594" y2="-4635.66234" xlink:href="#a"/><linearGradient id="i" x1="-2022.04015" y1="-4654.41262" x2="-2108.64204" y2="-4804.41151" xlink:href="#b"/><linearGradient id="j" x1="-2130.29034" y1="-4804.41128" x2="-2216.89224" y2="-4654.41239" gradientTransform="matrix(0.5, -0.86603, -0.86603, -0.5, -2922.39199, -4034.59615)" gradientUnits="userSpaceOnUse"><stop offset="0" stop-color="#1f1f99"/><stop offset="1" stop-color="#991f99"/></linearGradient><linearGradient id="k" x1="-2162.76639" y1="-4723.16206" x2="-2119.46544" y2="-4648.16262" xlink:href="#c"/><linearGradient id="l" x1="-2119.46694" y1="-4648.1624" x2="-2076.16599" y2="-4723.16185" xlink:href="#d"/><linearGradient id="m" x1="-2076.16593" y1="-4723.16234" x2="-2162.76591" y2="-4723.16234" xlink:href="#g"/><linearGradient id="n" x1="-2032.8637" y1="-4635.66398" x2="-1859.66375" y2="-4635.66398" xlink:href="#a"/><linearGradient id="o" x1="-1848.83795" y1="-4654.41426" x2="-1935.43985" y2="-4804.41315" xlink:href="#b"/><linearGradient id="p" x1="-1957.08815" y1="-4804.41294" x2="-2043.69005" y2="-4654.41405" xlink:href="#j"/><linearGradient id="q" x1="-1989.5642" y1="-4723.16371" x2="-1946.26325" y2="-4648.16426" xlink:href="#c"/><linearGradient id="r" x1="-1935.4405" y1="-4504.41428" x2="-2022.0424" y2="-4654.41317" xlink:href="#b"/><linearGradient id="s" x1="-2043.69068" y1="-4654.41295" x2="-2130.29258" y2="-4504.41406" xlink:href="#j"/><linearGradient id="t" x1="-1989.56629" y1="-4573.164" x2="-2076.16627" y2="-4573.164" xlink:href="#g"/><linearGradient id="u" x1="294.67549" y1="-72.72531" x2="467.87545" y2="-72.72531" gradientTransform="translate(-73.52923 460.30354) rotate(-59.99999)" gradientUnits="userSpaceOnUse"><stop offset="0" stop-color="lime"/><stop offset="1" stop-color="aqua"/></linearGradient><linearGradient id="v" x1="478.70124" y1="-53.97503" x2="392.09934" y2="96.02386" gradientTransform="translate(-73.52923 460.30354) rotate(-59.99999)" gradientUnits="userSpaceOnUse"><stop offset="0" stop-color="red"/><stop offset="1" stop-color="#ff0"/></linearGradient><linearGradient id="w" x1="370.45077" y1="96.02472" x2="283.84887" y2="-53.97417" gradientTransform="translate(-73.52923 460.30354) rotate(-59.99999)" gradientUnits="userSpaceOnUse"><stop offset="0" stop-color="blue"/><stop offset="1" stop-color="#f0f"/></linearGradient><linearGradient id="x" x1="337.975" y1="14.77442" x2="381.27595" y2="-60.22503" gradientTransform="translate(-73.52923 460.30354) rotate(-59.99999)" gradientUnits="userSpaceOnUse"><stop offset="0" stop-color="red"/><stop offset="1" stop-color="#f0f"/></linearGradient><linearGradient id="y" x1="381.27416" y1="-60.22416" x2="424.57511" y2="14.77529" gradientTransform="translate(-73.52923 460.30354) rotate(-59.99999)" gradientUnits="userSpaceOnUse"><stop offset="0" stop-color="blue"/><stop offset="1" stop-color="aqua"/><stop offset="1" stop-color="#00ffc2"/><stop offset="1" stop-color="#0f8"/><stop offset="1" stop-color="#00ff57"/><stop offset="1" stop-color="#00ff31"/><stop offset="1" stop-color="#00ff16"/><stop offset="1" stop-color="#00ff06"/><stop offset="1" stop-color="lime"/></linearGradient><linearGradient id="z" x1="424.57546" y1="14.77469" x2="337.97548" y2="14.77469" gradientTransform="translate(-73.52923 460.30354) rotate(-59.99999)" gradientUnits="userSpaceOnUse"><stop offset="0" stop-color="lime"/><stop offset="1" stop-color="#ff0"/></linearGradient><linearGradient id="aa" x1="399.22682" y1="108.36286" x2="572.42677" y2="108.36286" gradientTransform="translate(-73.52923 460.30354) rotate(-59.99999)" gradientUnits="userSpaceOnUse"><stop offset="0" stop-color="#45e645"/><stop offset="1" stop-color="#45e6e6"/></linearGradient><linearGradient id="ab" x1="583.25257" y1="127.11314" x2="496.65067" y2="277.11203" gradientTransform="translate(-73.52923 460.30354) rotate(-59.99999)" gradientUnits="userSpaceOnUse"><stop offset="0" stop-color="#e64646"/><stop offset="1" stop-color="#e6e646"/></linearGradient><linearGradient id="ac" x1="475.00208" y1="277.1129" x2="388.40018" y2="127.11401" gradientTransform="translate(-73.52923 460.30354) rotate(-59.99999)" gradientUnits="userSpaceOnUse"><stop offset="0" stop-color="#4545e6"/><stop offset="1" stop-color="#e645e6"/></linearGradient><linearGradient id="ad" x1="442.52633" y1="195.86258" x2="485.82728" y2="120.86314" gradientTransform="translate(-73.52923 460.30354) rotate(-59.99999)" gradientUnits="userSpaceOnUse"><stop offset="0" stop-color="#e64545"/><stop offset="1" stop-color="#e645e6"/></linearGradient><linearGradient id="ae" x1="485.82547" y1="120.86402" x2="529.12642" y2="195.86347" gradientTransform="translate(-73.52923 460.30354) rotate(-59.99999)" gradientUnits="userSpaceOnUse"><stop offset="0" stop-color="#4545e6"/><stop offset="1" stop-color="#45e6e6"/></linearGradient><linearGradient id="af" x1="529.12679" y1="195.86286" x2="442.52681" y2="195.86286" gradientTransform="translate(-73.52923 460.30354) rotate(-59.99999)" gradientUnits="userSpaceOnUse"><stop offset="0" stop-color="#45e645"/><stop offset="1" stop-color="#e6e645"/></linearGradient><linearGradient id="ag" x1="503.77879" y1="289.45213" x2="676.97874" y2="289.45213" gradientTransform="translate(-73.52923 460.30354) rotate(-59.99999)" gradientUnits="userSpaceOnUse"><stop offset="0" stop-color="#36b336"/><stop offset="1" stop-color="#36b3b3"/></linearGradient><linearGradient id="ah" x1="687.80454" y1="308.20241" x2="601.20264" y2="458.2013" gradientTransform="translate(-73.52923 460.30354) rotate(-59.99999)" gradientUnits="userSpaceOnUse"><stop offset="0" stop-color="#b33636"/><stop offset="1" stop-color="#b3b336"/></linearGradient><linearGradient id="ai" x1="579.55402" y1="458.20218" x2="492.95212" y2="308.2033" gradientTransform="translate(-73.52923 460.30354) rotate(-59.99999)" gradientUnits="userSpaceOnUse"><stop offset="0" stop-color="#3636b3"/><stop offset="1" stop-color="#b336b3"/></linearGradient><linearGradient id="aj" x1="547.07829" y1="376.95185" x2="590.37924" y2="301.95241" gradientTransform="translate(-73.52923 460.30354) rotate(-59.99999)" gradientUnits="userSpaceOnUse"><stop offset="0" stop-color="#b33636"/><stop offset="1" stop-color="#b336b3"/></linearGradient><linearGradient id="ak" x1="590.37742" y1="301.9533" x2="633.67837" y2="376.95275" gradientTransform="translate(-73.52923 460.30354) rotate(-59.99999)" gradientUnits="userSpaceOnUse"><stop offset="0" stop-color="#3636b3"/><stop offset="1" stop-color="#36b3b3"/></linearGradient><linearGradient id="al" x1="633.67875" y1="376.95213" x2="547.07878" y2="376.95213" gradientTransform="translate(-73.52923 460.30354) rotate(-59.99999)" gradientUnits="userSpaceOnUse"><stop offset="0" stop-color="#36b336"/><stop offset="1" stop-color="#b3b336"/></linearGradient><linearGradient id="am" x1="608.33139" y1="470.5425" x2="781.53134" y2="470.5425" gradientTransform="translate(-73.52923 460.30354) rotate(-59.99999)" gradientUnits="userSpaceOnUse"><stop offset="0" stop-color="#090"/><stop offset="1" stop-color="#099"/></linearGradient><linearGradient id="an" x1="792.35714" y1="489.29278" x2="705.75524" y2="639.29167" gradientTransform="translate(-73.52923 460.30354) rotate(-59.99999)" gradientUnits="userSpaceOnUse"><stop offset="0" stop-color="#900"/><stop offset="1" stop-color="#990"/></linearGradient><linearGradient id="ao" x1="684.1066" y1="639.29257" x2="597.5047" y2="489.29368" gradientTransform="translate(-73.52923 460.30354) rotate(-59.99999)" gradientUnits="userSpaceOnUse"><stop offset="0" stop-color="#009"/><stop offset="1" stop-color="#909"/></linearGradient><linearGradient id="ap" x1="651.63089" y1="558.04223" x2="694.93184" y2="483.04278" gradientTransform="translate(-73.52923 460.30354) rotate(-59.99999)" gradientUnits="userSpaceOnUse"><stop offset="0" stop-color="#900"/><stop offset="1" stop-color="#909"/></linearGradient><linearGradient id="aq" x1="694.93" y1="483.04369" x2="738.23095" y2="558.04313" gradientTransform="translate(-73.52923 460.30354) rotate(-59.99999)" gradientUnits="userSpaceOnUse"><stop offset="0" stop-color="#009"/><stop offset="1" stop-color="#099"/></linearGradient><linearGradient id="ar" x1="738.23135" y1="558.0425" x2="651.63138" y2="558.0425" gradientTransform="translate(-73.52923 460.30354) rotate(-59.99999)" gradientUnits="userSpaceOnUse"><stop offset="0" stop-color="#090"/><stop offset="1" stop-color="#990"/></linearGradient><linearGradient id="as" x1="413.47986" y1="583.03864" x2="586.67981" y2="583.03864" gradientTransform="translate(-73.52923 460.30354) rotate(-59.99999)" xlink:href="#a"/><linearGradient id="at" x1="597.50561" y1="601.78892" x2="510.90371" y2="751.78781" gradientTransform="translate(-73.52923 460.30354) rotate(-59.99999)" xlink:href="#b"/><linearGradient id="au" x1="489.25506" y1="751.78869" x2="402.65316" y2="601.7898" gradientTransform="translate(-73.52923 460.30354) rotate(-59.99999)" xlink:href="#j"/><linearGradient id="av" x1="456.77937" y1="670.53837" x2="500.08032" y2="595.53892" gradientTransform="translate(-73.52923 460.30354) rotate(-59.99999)" xlink:href="#c"/><linearGradient id="aw" x1="500.07846" y1="595.53981" x2="543.37941" y2="670.53925" gradientTransform="translate(-73.52923 460.30354) rotate(-59.99999)" xlink:href="#d"/><linearGradient id="ax" x1="543.37982" y1="670.53864" x2="456.77985" y2="670.53864" gradientTransform="translate(-73.52923 460.30354) rotate(-59.99999)" xlink:href="#g"/><pattern id="ay" width="173.20507" height="299.99334" patternTransform="translate(-165.51451 -239.70198) scale(1.26)" patternUnits="userSpaceOnUse" viewBox="0 0 173.205 299.993"><rect class="a" width="173.20507" height="299.99334"/><polygon class="b" points="173.204 199.996 173.204 249.994 129.904 274.993 129.904 324.992 86.604 349.991 86.603 249.993 173.204 199.996"/><polygon class="c" points="173.204 199.996 259.806 249.996 259.808 349.993 216.506 324.993 216.506 274.994 173.204 249.994 173.204 199.996"/><polygon class="d" points="129.904 274.993 173.205 299.993 173.206 349.992 129.904 324.992 129.904 274.993"/><polygon class="e" points="173.204 249.994 216.506 274.994 173.205 299.993 129.904 274.993 173.204 249.994"/><polygon class="f" points="-0.001 199.996 86.601 249.996 86.603 349.993 43.301 324.993 43.301 274.994 -0.001 249.994 -0.001 199.996"/><polygon class="g" points="-0.001 249.994 43.301 274.994 0 299.993 -43.301 274.993 -0.001 249.994"/><polygon class="h" points="43.301 274.994 43.301 324.993 0.001 349.992 0 299.993 43.301 274.994"/><polygon class="i" points="86.601 49.999 86.602 99.998 43.301 124.997 43.302 174.996 0.001 199.994 0 99.997 86.601 49.999"/><polygon class="j" points="86.601 49.999 173.204 99.999 173.205 199.997 129.904 174.997 129.903 124.998 86.602 99.998 86.601 49.999"/><polygon class="k" points="129.904 174.997 173.205 199.997 86.604 249.994 0.001 199.994 43.302 174.996 86.603 199.996 129.904 174.997"/><polygon class="l" points="43.301 124.997 86.603 149.997 86.603 199.996 43.302 174.996 43.301 124.997"/><polygon class="m" points="86.602 99.998 129.903 124.998 86.603 149.997 43.301 124.997 86.602 99.998"/><polygon class="n" points="129.903 124.998 129.904 174.997 86.603 199.996 86.603 149.997 129.903 124.998"/><polygon class="o" points="173.204 -99.998 173.204 -49.999 129.904 -25 129.904 24.999 86.604 49.998 86.603 -50 173.204 -99.998"/><polygon class="p" points="173.204 -99.998 259.806 -49.998 259.808 50 216.506 25 216.506 -24.999 173.204 -49.999 173.204 -99.998"/><polygon class="q" points="216.506 25 259.808 50 173.206 99.998 86.604 49.998 129.904 24.999 173.206 49.999 216.506 25"/><polygon class="r" points="129.904 -25 173.205 0 173.206 49.999 129.904 24.999 129.904 -25"/><polygon class="s" points="-0.001 -99.998 86.601 -49.998 86.603 50 43.301 25 43.301 -24.999 -0.001 -49.999 -0.001 -99.998"/><polygon class="t" points="43.301 25 86.603 50 0.001 99.998 -86.601 49.998 -43.301 24.999 0.001 49.999 43.301 25"/><polygon class="u" points="43.301 -24.999 43.301 25 0.001 49.999 0 0 43.301 -24.999"/></pattern></defs><polygon class="v" points="108.252 24.999 108.253 74.998 64.952 99.997 64.953 149.996 21.652 174.994 21.651 74.997 108.252 24.999"/><polygon class="w" points="108.252 24.999 194.854 74.999 194.856 174.997 151.554 149.997 151.554 99.998 108.253 74.998 108.252 24.999"/><polygon class="x" points="151.554 149.997 194.856 174.997 108.254 224.994 21.652 174.994 64.953 149.996 108.254 174.996 151.554 149.997"/><polygon class="y" points="64.952 99.997 108.253 124.997 108.254 174.996 64.953 149.996 64.952 99.997"/><polygon class="z" points="108.253 74.998 151.554 99.998 108.253 124.997 64.952 99.997 108.253 74.998"/><polygon class="aa" points="151.554 99.998 151.554 149.997 108.254 174.996 108.253 124.997 151.554 99.998"/><polygon class="ab" points="317.355 24.999 317.355 74.998 274.055 99.997 274.055 149.996 230.755 174.994 230.753 74.997 317.355 24.999"/><polygon class="ac" points="317.355 24.999 403.957 74.999 403.958 174.997 360.657 149.997 360.656 99.998 317.355 74.998 317.355 24.999"/><polygon class="ad" points="360.657 149.997 403.958 174.997 317.357 224.994 230.755 174.994 274.055 149.996 317.356 174.996 360.657 149.997"/><polygon class="ae" points="274.055 99.997 317.356 124.997 317.356 174.996 274.055 149.996 274.055 99.997"/><polygon class="af" points="317.355 74.998 360.656 99.998 317.356 124.997 274.055 99.997 317.355 74.998"/><polygon class="ag" points="360.656 99.998 360.657 149.997 317.356 174.996 317.356 124.997 360.656 99.998"/><polygon class="ah" points="526.458 24.999 526.459 74.998 483.158 99.997 483.159 149.996 439.858 174.994 439.857 74.997 526.458 24.999"/><polygon class="ai" points="526.458 24.999 613.061 74.999 613.062 174.997 569.761 149.997 569.76 99.998 526.459 74.998 526.458 24.999"/><polygon class="aj" points="569.761 149.997 613.062 174.997 526.461 224.994 439.858 174.994 483.159 149.996 526.46 174.996 569.761 149.997"/><polygon class="ak" points="483.158 99.997 526.46 124.997 526.46 174.996 483.159 149.996 483.158 99.997"/><polygon class="al" points="526.459 74.998 569.76 99.998 526.46 124.997 483.158 99.997 526.459 74.998"/><polygon class="am" points="569.76 99.998 569.761 149.997 526.46 174.996 526.46 124.997 569.76 99.998"/><polygon class="an" points="735.564 24.999 735.564 74.998 692.264 99.997 692.264 149.996 648.964 174.994 648.962 74.997 735.564 24.999"/><polygon class="ao" points="735.564 24.999 822.166 74.999 822.167 174.997 778.866 149.997 778.865 99.998 735.564 74.998 735.564 24.999"/><polygon class="ap" points="778.866 149.997 822.167 174.997 735.566 224.994 648.964 174.994 692.264 149.996 735.565 174.996 778.866 149.997"/><polygon class="aq" points="692.264 99.997 735.565 124.997 735.565 174.996 692.264 149.996 692.264 99.997"/><polygon class="ar" points="735.564 74.998 778.865 99.998 735.565 124.997 692.264 99.997 735.564 74.998"/><polygon class="as" points="778.865 99.998 778.866 149.997 735.565 174.996 735.565 124.997 778.865 99.998"/><polygon class="at" points="735.562 249.993 735.563 299.992 692.262 324.991 692.263 374.99 648.962 399.989 648.961 299.991 735.562 249.993"/><polygon class="au" points="735.562 249.993 822.165 299.993 822.166 399.991 778.865 374.991 778.864 324.992 735.563 299.992 735.562 249.993"/><polygon class="av" points="778.865 374.991 822.166 399.991 735.565 449.989 648.962 399.989 692.263 374.99 735.564 399.99 778.865 374.991"/><polygon class="aw" points="692.262 324.991 735.564 349.991 735.564 399.99 692.263 374.99 692.262 324.991"/><polygon class="ax" points="735.563 299.992 778.864 324.992 735.564 349.991 692.262 324.991 735.563 299.992"/><polygon class="ay" points="778.864 324.992 778.865 374.991 735.564 399.99 735.564 349.991 778.864 324.992"/><rect class="az" width="1000" height="1000"/></svg>