<svg xmlns="http://www.w3.org/2000/svg" xmlns:xlink="http://www.w3.org/1999/xlink" viewBox="0 0 197.97987 200"><defs><style>.a{fill:none;}.b{fill:url(#a);}.c{fill:url(#b);}.d{fill:url(#c);}.e{fill:url(#d);}.f{fill:url(#e);}.g{fill:url(#f);}.h{fill:url(#g);}.i{fill:url(#h);}.j{fill:url(#i);}.k{fill:url(#j);}.l{fill:url(#k);}.m{fill:url(#l);}.n{fill:url(#m);}.o{fill:url(#n);}.p{fill:url(#o);}.q{fill:url(#p);}.r{fill:url(#q);}.s{fill:url(#r);}.t{fill:url(#s);}.u{fill:url(#t);}.v,.y{fill:#23272a;}.v,.x{fill-rule:evenodd;}.w{fill:#939598;}.x{fill:url(#u);}</style><linearGradient id="a" x1="-22249.87674" y1="2025.54436" x2="-22076.67679" y2="2025.54436" gradientTransform="matrix(0.5, -0.86603, -0.86603, -0.5, 12954.89177, -17912.44383)" gradientUnits="userSpaceOnUse"><stop offset="0" stop-color="lime"/><stop offset="1" stop-color="aqua"/></linearGradient><linearGradient id="b" x1="-22065.85099" y1="2006.79408" x2="-22152.45289" y2="1856.79519" gradientTransform="matrix(0.5, -0.86603, -0.86603, -0.5, 12954.89177, -17912.44383)" gradientUnits="userSpaceOnUse"><stop offset="0" stop-color="red"/><stop offset="1" stop-color="#ff0"/></linearGradient><linearGradient id="c" x1="-22206.57724" y1="1938.04463" x2="-22163.27629" y2="2013.04408" gradientTransform="matrix(0.5, -0.86603, -0.86603, -0.5, 12954.89177, -17912.44383)" gradientUnits="userSpaceOnUse"><stop offset="0" stop-color="red"/><stop offset="1" stop-color="#f0f"/></linearGradient><linearGradient id="d" x1="-22163.27707" y1="2013.04645" x2="-22119.97613" y2="1938.04701" gradientTransform="matrix(0.5, -0.86603, -0.86603, -0.5, 12954.89177, -17912.44383)" gradientUnits="userSpaceOnUse"><stop offset="0" stop-color="blue"/><stop offset="1" stop-color="aqua"/><stop offset="1" stop-color="#00ffc2"/><stop offset="1" stop-color="#0f8"/><stop offset="1" stop-color="#00ff57"/><stop offset="1" stop-color="#00ff31"/><stop offset="1" stop-color="#00ff16"/><stop offset="1" stop-color="#00ff06"/><stop offset="1" stop-color="lime"/></linearGradient><linearGradient id="e" x1="-22152.45355" y1="2156.79406" x2="-22239.05545" y2="2006.79517" xlink:href="#b"/><linearGradient id="f" x1="-22249.87961" y1="2163.04644" x2="-22206.57866" y2="2088.047" xlink:href="#d"/><linearGradient id="g" x1="-22206.57933" y1="2088.04434" x2="-22293.17931" y2="2088.04434" gradientTransform="matrix(0.5, -0.86603, -0.86603, -0.5, 12954.89177, -17912.44383)" gradientUnits="userSpaceOnUse"><stop offset="0" stop-color="lime"/><stop offset="1" stop-color="#ff0"/></linearGradient><linearGradient id="h" x1="-22163.2771" y1="2175.5427" x2="-21990.07715" y2="2175.5427" xlink:href="#a"/><linearGradient id="i" x1="-21979.25135" y1="2156.79242" x2="-22065.85325" y2="2006.79353" xlink:href="#b"/><linearGradient id="j" x1="-22087.50081" y1="2006.7959" x2="-22174.10271" y2="2156.79479" gradientTransform="matrix(0.5, -0.86603, -0.86603, -0.5, 12954.89177, -17912.44383)" gradientUnits="userSpaceOnUse"><stop offset="0" stop-color="blue"/><stop offset="1" stop-color="#f0f"/></linearGradient><linearGradient id="k" x1="-22119.9776" y1="2088.04297" x2="-22076.67665" y2="2163.04242" xlink:href="#c"/><linearGradient id="l" x1="-22076.67742" y1="2163.04478" x2="-22033.37647" y2="2088.04534" xlink:href="#d"/><linearGradient id="m" x1="-22033.37714" y1="2088.0427" x2="-22119.97712" y2="2088.0427" xlink:href="#g"/><linearGradient id="n" x1="-21990.07491" y1="2175.54105" x2="-21816.87496" y2="2175.54105" xlink:href="#a"/><linearGradient id="o" x1="-21806.04916" y1="2156.79077" x2="-21892.65106" y2="2006.79189" xlink:href="#b"/><linearGradient id="p" x1="-21914.29862" y1="2006.79424" x2="-22000.90052" y2="2156.79313" xlink:href="#j"/><linearGradient id="q" x1="-21946.7754" y1="2088.04133" x2="-21903.47445" y2="2163.04077" xlink:href="#c"/><linearGradient id="r" x1="-21892.65171" y1="2306.79076" x2="-21979.25361" y2="2156.79187" xlink:href="#b"/><linearGradient id="s" x1="-22000.90116" y1="2156.79423" x2="-22087.50305" y2="2306.79312" xlink:href="#j"/><linearGradient id="t" x1="-21946.7775" y1="2238.04103" x2="-22033.37747" y2="2238.04103" xlink:href="#g"/><pattern id="u" width="173.20507" height="299.99334" patternTransform="translate(27.13205 26.05484) scale(0.45)" patternUnits="userSpaceOnUse" viewBox="0 0 173.205 299.993"><rect class="a" width="173.20507" height="299.99334"/><polygon class="b" points="173.204 199.996 173.205 249.994 129.904 274.993 129.905 324.992 86.604 349.991 86.603 249.993 173.204 199.996"/><polygon class="c" points="173.204 199.996 259.806 249.996 259.808 349.993 216.506 324.993 216.506 274.994 173.205 249.994 173.204 199.996"/><polygon class="d" points="129.904 274.993 173.205 299.993 173.206 349.992 129.905 324.992 129.904 274.993"/><polygon class="e" points="173.205 249.994 216.506 274.994 173.205 299.993 129.904 274.993 173.205 249.994"/><polygon class="f" points="-0.001 199.996 86.601 249.996 86.603 349.993 43.301 324.993 43.301 274.994 -0.001 249.994 -0.001 199.996"/><polygon class="g" points="-0.001 249.994 43.301 274.994 0 299.993 -43.301 274.993 -0.001 249.994"/><polygon class="h" points="43.301 274.994 43.301 324.993 0.001 349.992 0 299.993 43.301 274.994"/><polygon class="i" points="86.601 49.999 86.602 99.998 43.301 124.997 43.302 174.996 0.001 199.994 0 99.997 86.601 49.999"/><polygon class="j" points="86.601 49.999 173.204 99.999 173.205 199.997 129.904 174.997 129.903 124.998 86.602 99.998 86.601 49.999"/><polygon class="k" points="129.904 174.997 173.205 199.997 86.604 249.994 0.001 199.994 43.302 174.996 86.603 199.996 129.904 174.997"/><polygon class="l" points="43.301 124.997 86.603 149.997 86.603 199.996 43.302 174.996 43.301 124.997"/><polygon class="m" points="86.602 99.998 129.903 124.998 86.603 149.997 43.301 124.997 86.602 99.998"/><polygon class="n" points="129.903 124.998 129.904 174.997 86.603 199.996 86.603 149.997 129.903 124.998"/><polygon class="o" points="173.204 -99.998 173.205 -49.999 129.904 -25 129.905 24.999 86.604 49.998 86.603 -50 173.204 -99.998"/><polygon class="p" points="173.204 -99.998 259.806 -49.998 259.808 50 216.506 25 216.506 -24.999 173.205 -49.999 173.204 -99.998"/><polygon class="q" points="216.506 25 259.808 50 173.206 99.998 86.604 49.998 129.905 24.999 173.206 49.999 216.506 25"/><polygon class="r" points="129.904 -25 173.205 0 173.206 49.999 129.905 24.999 129.904 -25"/><polygon class="s" points="-0.001 -99.998 86.601 -49.998 86.603 50 43.301 25 43.301 -24.999 -0.001 -49.999 -0.001 -99.998"/><polygon class="t" points="43.301 25 86.603 50 0.001 99.998 -86.601 49.998 -43.301 24.999 0.001 49.999 43.301 25"/><polygon class="u" points="43.301 -24.999 43.301 25 0.001 49.999 0 0 43.301 -24.999"/></pattern></defs><path class="v" d="M35.50231,31.26131a26.41259,26.41259,0,1,1,52.37631-4.84862V58.97544q5.47313-.38625,11.11125-.38956,5.41125,0,10.68125.35981v-32.533a26.41256,26.41256,0,1,1,52.37624,4.84862l-7.14749,38.27557c24.53063,10.71,43.08,29.31124,43.08,52.68562v14.14124c0,19.22126-12.71625,35.315-30.49375,46.17876C149.56987,193.49124,125.333,200,98.98987,200s-50.58006-6.50876-68.49613-17.4575C12.71637,171.67875,0,155.585,0,136.36374V122.2225c0-23.25063,18.35856-41.78,42.68262-52.51125ZM145.73987,74.56563l8.36438-44.78775a18.332,18.332,0,1,0-36.35251-3.36519V67.85125q-3.97968-.51-8.08062-.805-5.25564-.37595-10.68125-.37937-5.64187,0-11.11125.41062-4.09875.30563-8.08062.82937V26.41269a18.33186,18.33186,0,1,0-36.35219,3.36519l8.39168,44.93649C25.60374,84.45938,8.08081,102.09,8.08081,122.2225v14.14124c0,30.68251,40.70137,55.55563,90.90906,55.55563,50.20749,0,90.90937-24.87312,90.90937-55.55563V122.2225C189.89924,101.9875,172.19675,84.27938,145.73987,74.56563Z"/><path class="w" d="M189.89924,136.36438c0,30.6825-40.70124,55.55561-90.90937,55.55561-50.20744,0-90.90881-24.87311-90.90881-55.55561V122.22313H189.89924Z"/><path class="x" d="M43.446,29.77813a18.33178,18.33178,0,1,1,36.352-3.36519V67.9075a149.13075,149.13075,0,0,1,37.95374-.05625V26.41294a18.332,18.332,0,1,1,36.35251,3.36519L145.7405,74.56625c26.45625,9.71313,44.15874,27.42125,44.15874,47.65625,0,30.6825-40.70124,55.55562-90.90937,55.55562-50.20744,0-90.90881-24.87312-90.90881-55.55562,0-20.13188,17.52293-37.76312,43.75668-47.50813Z"/><path class="y" d="M73.73675,118.18187c0,8.36812-4.52251,15.15125-10.10126,15.15125-5.57843,0-10.10081-6.78313-10.10081-15.15125s4.52238-15.15125,10.10081-15.15125C69.21424,103.03062,73.73675,109.81375,73.73675,118.18187Z"/><path class="y" d="M143.43424,118.18187c0,8.36812-4.52249,15.15125-10.10125,15.15125-5.57812,0-10.10062-6.78313-10.10062-15.15125s4.5225-15.15125,10.10062-15.15125C138.91175,103.03062,143.43424,109.81375,143.43424,118.18187Z"/></svg>