<svg xmlns="http://www.w3.org/2000/svg" xmlns:xlink="http://www.w3.org/1999/xlink" viewBox="0 0 1000 1000"><defs><style>.a{fill:none;}.b{fill:url(#a);}.c{fill:url(#b);}.d{fill:url(#c);}.e{fill:url(#d);}.f{fill:url(#e);}.g{fill:url(#f);}.h{fill:url(#g);}.i{fill:url(#h);}.j{fill:url(#i);}.k{fill:url(#j);}.l{fill:url(#k);}.m{fill:url(#l);}.n{fill:url(#m);}.o{fill:url(#n);}.p{fill:url(#o);}.q{fill:url(#p);}.r{fill:url(#q);}.s{fill:url(#r);}.t{fill:url(#s);}.u{fill:url(#t);}.v{fill:url(#u);}.w{fill:#fff;stroke:#231f20;stroke-miterlimit:10;stroke-width:15px;}</style><linearGradient id="a" x1="-22249.87674" y1="2025.54436" x2="-22076.67679" y2="2025.54436" gradientTransform="matrix(0.5, -0.86603, -0.86603, -0.5, 12954.89177, -17912.44383)" gradientUnits="userSpaceOnUse"><stop offset="0" stop-color="lime"/><stop offset="1" stop-color="aqua"/></linearGradient><linearGradient id="b" x1="-22065.85099" y1="2006.79408" x2="-22152.45289" y2="1856.79519" gradientTransform="matrix(0.5, -0.86603, -0.86603, -0.5, 12954.89177, -17912.44383)" gradientUnits="userSpaceOnUse"><stop offset="0" stop-color="red"/><stop offset="1" stop-color="#ff0"/></linearGradient><linearGradient id="c" x1="-22206.57724" y1="1938.04463" x2="-22163.27629" y2="2013.04408" gradientTransform="matrix(0.5, -0.86603, -0.86603, -0.5, 12954.89177, -17912.44383)" gradientUnits="userSpaceOnUse"><stop offset="0" stop-color="red"/><stop offset="1" stop-color="#f0f"/></linearGradient><linearGradient id="d" x1="-22163.27707" y1="2013.04645" x2="-22119.97613" y2="1938.04701" gradientTransform="matrix(0.5, -0.86603, -0.86603, -0.5, 12954.89177, -17912.44383)" gradientUnits="userSpaceOnUse"><stop offset="0" stop-color="blue"/><stop offset="1" stop-color="aqua"/><stop offset="1" stop-color="#00ffc2"/><stop offset="1" stop-color="#0f8"/><stop offset="1" stop-color="#00ff57"/><stop offset="1" stop-color="#00ff31"/><stop offset="1" stop-color="#00ff16"/><stop offset="1" stop-color="#00ff06"/><stop offset="1" stop-color="lime"/></linearGradient><linearGradient id="e" x1="-22152.45355" y1="2156.79406" x2="-22239.05545" y2="2006.79517" xlink:href="#b"/><linearGradient id="f" x1="-22249.87961" y1="2163.04644" x2="-22206.57866" y2="2088.047" xlink:href="#d"/><linearGradient id="g" x1="-22206.57933" y1="2088.04434" x2="-22293.17931" y2="2088.04434" gradientTransform="matrix(0.5, -0.86603, -0.86603, -0.5, 12954.89177, -17912.44383)" gradientUnits="userSpaceOnUse"><stop offset="0" stop-color="lime"/><stop offset="1" stop-color="#ff0"/></linearGradient><linearGradient id="h" x1="-22163.2771" y1="2175.5427" x2="-21990.07715" y2="2175.5427" xlink:href="#a"/><linearGradient id="i" x1="-21979.25135" y1="2156.79242" x2="-22065.85325" y2="2006.79353" xlink:href="#b"/><linearGradient id="j" x1="-22087.50081" y1="2006.7959" x2="-22174.10271" y2="2156.79479" gradientTransform="matrix(0.5, -0.86603, -0.86603, -0.5, 12954.89177, -17912.44383)" gradientUnits="userSpaceOnUse"><stop offset="0" stop-color="blue"/><stop offset="1" stop-color="#f0f"/></linearGradient><linearGradient id="k" x1="-22119.9776" y1="2088.04297" x2="-22076.67665" y2="2163.04242" xlink:href="#c"/><linearGradient id="l" x1="-22076.67742" y1="2163.04478" x2="-22033.37647" y2="2088.04534" xlink:href="#d"/><linearGradient id="m" x1="-22033.37714" y1="2088.0427" x2="-22119.97712" y2="2088.0427" xlink:href="#g"/><linearGradient id="n" x1="-21990.07491" y1="2175.54105" x2="-21816.87496" y2="2175.54105" xlink:href="#a"/><linearGradient id="o" x1="-21806.04916" y1="2156.79077" x2="-21892.65106" y2="2006.79189" xlink:href="#b"/><linearGradient id="p" x1="-21914.29862" y1="2006.79424" x2="-22000.90052" y2="2156.79313" xlink:href="#j"/><linearGradient id="q" x1="-21946.7754" y1="2088.04133" x2="-21903.47445" y2="2163.04077" xlink:href="#c"/><linearGradient id="r" x1="-21892.65171" y1="2306.79076" x2="-21979.25361" y2="2156.79187" xlink:href="#b"/><linearGradient id="s" x1="-22000.90116" y1="2156.79423" x2="-22087.50305" y2="2306.79312" xlink:href="#j"/><linearGradient id="t" x1="-21946.7775" y1="2238.04103" x2="-22033.37747" y2="2238.04103" xlink:href="#g"/><pattern id="u" width="173.20507" height="299.99334" patternTransform="translate(-79.52208 166.27805) scale(0.92251 0.92251)" patternUnits="userSpaceOnUse" viewBox="0 0 173.205 299.993"><rect class="a" width="173.20507" height="299.99334"/><polygon class="b" points="173.204 199.996 173.205 249.994 129.904 274.993 129.905 324.992 86.604 349.991 86.603 249.993 173.204 199.996"/><polygon class="c" points="173.204 199.996 259.806 249.996 259.808 349.993 216.506 324.993 216.506 274.994 173.205 249.994 173.204 199.996"/><polygon class="d" points="129.904 274.993 173.205 299.993 173.206 349.992 129.905 324.992 129.904 274.993"/><polygon class="e" points="173.205 249.994 216.506 274.994 173.205 299.993 129.904 274.993 173.205 249.994"/><polygon class="f" points="-0.001 199.996 86.601 249.996 86.603 349.993 43.301 324.993 43.301 274.994 -0.001 249.994 -0.001 199.996"/><polygon class="g" points="-0.001 249.994 43.301 274.994 0 299.993 -43.301 274.993 -0.001 249.994"/><polygon class="h" points="43.301 274.994 43.301 324.993 0.001 349.992 0 299.993 43.301 274.994"/><polygon class="i" points="86.601 49.999 86.602 99.998 43.301 124.997 43.302 174.996 0.001 199.994 0 99.997 86.601 49.999"/><polygon class="j" points="86.601 49.999 173.204 99.999 173.205 199.997 129.904 174.997 129.903 124.998 86.602 99.998 86.601 49.999"/><polygon class="k" points="129.904 174.997 173.205 199.997 86.604 249.994 0.001 199.994 43.302 174.996 86.603 199.996 129.904 174.997"/><polygon class="l" points="43.301 124.997 86.603 149.997 86.603 199.996 43.302 174.996 43.301 124.997"/><polygon class="m" points="86.602 99.998 129.903 124.998 86.603 149.997 43.301 124.997 86.602 99.998"/><polygon class="n" points="129.903 124.998 129.904 174.997 86.603 199.996 86.603 149.997 129.903 124.998"/><polygon class="o" points="173.204 -99.998 173.205 -49.999 129.904 -25 129.905 24.999 86.604 49.998 86.603 -50 173.204 -99.998"/><polygon class="p" points="173.204 -99.998 259.806 -49.998 259.808 50 216.506 25 216.506 -24.999 173.205 -49.999 173.204 -99.998"/><polygon class="q" points="216.506 25 259.808 50 173.206 99.998 86.604 49.998 129.905 24.999 173.206 49.999 216.506 25"/><polygon class="r" points="129.904 -25 173.205 0 173.206 49.999 129.905 24.999 129.904 -25"/><polygon class="s" points="-0.001 -99.998 86.601 -49.998 86.603 50 43.301 25 43.301 -24.999 -0.001 -49.999 -0.001 -99.998"/><polygon class="t" points="43.301 25 86.603 50 0.001 99.998 -86.601 49.998 -43.301 24.999 0.001 49.999 43.301 25"/><polygon class="u" points="43.301 -24.999 43.301 25 0.001 49.999 0 0 43.301 -24.999"/></pattern></defs><rect class="v" width="1000" height="1000"/><path class="w" d="M99.20312,584.09766c-3.43261,0-11.99414-1.15332-17.334-11.833a38.4283,38.4283,0,0,1-3.86621-17.36621c0-2.86328.28027-7.10742.85742-12.97461.51758-5.3291.91162-9.98633,1.16944-13.8291l.03222-.47657.06934-.47168c1.01123-6.85058,1.648-12.42089,1.89258-16.55664l.02148-.30273c1.31934-15.59326,2.3877-30.81543,3.17578-45.24316q.46435-8.51588.80811-14.873a275.05065,275.05065,0,0,1-34.82618,2.32715,33.82508,33.82508,0,0,1-19.91406-5.99219,24.67026,24.67026,0,0,1-10.48633-20.80762c0-8.38525,3.31543-13.47461,6.0962-16.26758,5.52392-5.50048,13.54687-6.13232,19.104-6.13232l21.665.40869c8.15088.31641,15.436.53858,21.78955.665.89355-17.15967,1.34521-31.34424,1.34521-42.27393,0-30.61035-.26806-58.51513-.79687-82.94043l-.00293-15.05957a23.99751,23.99751,0,0,1,8.95264-19.04785,28.31156,28.31156,0,0,1,18.24755-6.55224c3.25928,0,14.166,1.15722,17.6792,16.04394a79.061,79.061,0,0,1,1.92041,17.95606c0,6.17383-.66162,18.19629-2.02294,36.75-2.041,39.48193-2.36573,47.32373-2.37745,48.48193v.21l-1.55468,44.43115c21.03173-1.17627,51.42627-4.08252,90.71484-8.67529,1.07324-10.479,2.56982-27.499,4.47021-50.85107,1.05176-17.14209,1.999-29.99463,2.81592-38.20215l2.40088-31.2002c3.41944-38.71484,5.15283-63.12207,5.15283-72.54443a22.34319,22.34319,0,0,1,8.49659-17.76465,26.4482,26.4482,0,0,1,16.70361-5.835c4.50439,0,19.20019,1.875,19.20019,26,0,4.01758-.42089,13.36035-4.05566,47.9585-2.91064,32.7666-4.5166,51.23144-4.77393,54.88427q-2.26756,29.10938-4.3457,55.55176s-1.41553,17.977-1.87012,23.68945a40.31761,40.31761,0,0,1,10.645-1.68408c5.84473,0,11.51563,2.60987,17.33643,7.97949,4.71143,4.354,9.064,9.25391,9.064,15.62061,0,4.58594-1.71337,15.752-17.55419,20.6333a80.57661,80.57661,0,0,1-20.34083,3.5459c-.92578.0542-1.79052.104-2.59912.14941-.2915,5.38233-.67334,11.07178-1.14257,17.01563q-1.20191,15.2124-2.001,25.209l-1.19824,12.39893-.79981,12.78027-2.40039,30.80029c-2.23144,28.40235-18.34131,31.46778-25.16406,31.46778-12.43652,0-17.90039-13.27149-19.6958-17.63281-3.43457-8.33985-5.104-15.26368-5.104-21.168,0-4.3545,2.08692-8.37207,5.22071-13.06446a15.20109,15.20109,0,0,0,2.0542-6.67285l.04492-.35449c1.022-7.17725,2.20508-19.43457,3.51562-36.43066.83643-10.88965,1.519-20.75049,2.042-29.47608-6.18409.63916-12.63282,1.40576-19.292,2.293l-.19091.02588-.1919.019q-8.00976.80714-36.01123,3.60156c-13.19189,1.32032-24.52246,2.31836-33.84521,2.98194-.90235,15.39746-1.89551,33.4043-2.96241,53.707-1.63916,31.041-1.9834,42.02246-1.9834,45.77051a34.51416,34.51416,0,0,0,.78272,6.12793,55.98742,55.98742,0,0,1,1.21728,10.27246c0,4.57031-1.86376,11.26172-10.74267,17.18262C108.71484,582.31348,103.8667,584.09766,99.20312,584.09766Z"/><path class="w" d="M422.39941,534.89844c-13.81591,0-20-9.44239-20-18.80078,0-4.64551,1.16163-15.94727,10.2212-62.49219q4.89769-25.19093,9.07617-44.8794a44.52923,44.52923,0,0,1-16.49854,2.97217c-15.17041,0-29.06689-10.105-42.48193-30.89306-11.16162-17.27832-22.44531-38.24414-33.53613-62.31153l-3.98536-7.97265A157.51546,157.51546,0,0,0,314.813,291.95264c-5.898-8.83741-7.61377-12.04444-7.61377-16.2544,0-5.14306,2.9414-11.62207,11.19629-14.38135a32.98308,32.98308,0,0,1,10.40332-1.61865c21.2207,0,31.35937,24.55176,34.69092,32.61963a545.15192,545.15192,0,0,0,27.94238,58.05176c6.83008,12.03125,13.74267,18.92871,18.96728,18.92871a13.66965,13.66965,0,0,0,9.59522-3.74072,44.39047,44.39047,0,0,0,9.76514-12.60889c2.72656-5.2085,6.11816-12.90283,10.08886-22.88574,4-10.07031,7.07032-18.42578,9.124-24.82959l.04248-.1294c11.34131-34.03222,13.30127-41.38134,13.61767-42.96142l.042-.20947.04932-.208c1.55518-6.54785,2.959-11.041,4.41846-14.13965a17.40889,17.40889,0,0,1,16.05566-10.28711,25.59283,25.59283,0,0,1,15.59815,5.39844c5.68017,4.26709,8.80224,10.16015,8.80224,16.60156a59.95981,59.95981,0,0,1-2.959,18.01953c-1.67774,5.31543-4.3667,12.85059-8.21826,23.02783l-.08252.21729-.09033.21387c-2.80616,6.627-6.47754,16.46923-10.91211,29.2539-11.4043,33.42139-20.23829,70.9961-26.23877,111.6294-.79346,6.90283-1.58692,14.314-2.35743,22.03027-.75732,7.56982-1.1416,14.03125-1.1416,19.20752a4.13834,4.13834,0,0,0,.9126,2.43652c3.22461,4.73633,5.0874,8.27295,5.0874,12.36377,0,5.61133-3.19873,10.57715-8.002,16.3086a97.62617,97.62617,0,0,1-13.231,13.00586C433.728,532.39453,428.022,534.89844,422.39941,534.89844Z"/><path class="w" d="M597.19629,544.49805c-3.74024,0-16.19336-1.30957-19.39063-18.16407l-.21-1.10839v-.64649c-.06543-.54785-.26367-2.02051-.85742-5.83594A133.47534,133.47534,0,0,1,575.5957,498.898c0-20.5669-.80468-54.8833-2.39258-101.99561-.80078-24.03564-1.207-41.396-1.207-51.604,0-8.13232.12012-15.78369.35645-22.771-9.80566,2.96289-18.64746,5.9751-26.41309,9.001-3.60449,1.71-8.793,4.56592-15.42871,8.49561-3.3457,1.95361-6.6748,3.79492-9.959,5.51025-4.92676,2.56934-8.91406,3.76416-12.55567,3.76416a19.21654,19.21654,0,0,1-14.71582-6.99658,22.07694,22.07694,0,0,1-5.28418-14.60352c0-11.04,10.98-18.16406,21.72071-23.67627a274.23679,274.23679,0,0,1,38.71777-15.71875,346.63748,346.63748,0,0,1,41.6582-11.18213l.12207-.02295a278.097,278.097,0,0,1,50.18164-4.20019c26.22071,0,46.5459,3.42285,62.1377,10.46387,23.0293,10.41308,27.8623,27.02978,27.8623,39.13623,0,19.24707-7.82128,35.93017-23.24609,49.58545C693.5,384.17432,674.4375,395.6709,650.49121,406.25439c-8.40039,3.79541-17.10644,7.38819-25.87988,10.6792-3.35059,1.25586-6.22754,2.31934-8.67188,3.20655,1.09961,28.814,1.65625,53.92968,1.65625,74.75781,0,7.48584,1.00391,11.75049,1.84571,14.00928,2.79394,7.52636,3.35449,10.625,3.35449,13.19043,0,6.92382-3.42188,13.07226-9.63477,17.3125A27.97191,27.97191,0,0,1,597.19629,544.49805Zm16.39648-175.52686c.11035,2.73438.19825,5.76172.26368,9.06494,4.64453-1.64258,10.82812-4.001,19.041-7.38086,16.53125-7.27148,30.54785-15.40576,41.665-24.17773,8.915-7.02979,13.43359-14.02,13.43359-20.7793,0-1.585,0-4.88281-8.91992-7.7915-10.21484-3.32276-23.23047-5.00879-38.67969-5.00879-8.59863,0-17.43261.41846-26.36914,1.24658-.07617,1.33594-.1582,2.85205-.24707,4.57422-.38574,7.47021-.582,14.63574-.584,21.29834Z"/><path class="w" d="M871.19531,538.49805c-16.833,0-30.95312-.92969-41.96972-2.7627-12.76661-2.13379-22.82129-6.62012-29.89356-13.33594l-.36816-.34961-.33692-.3789c-8.08105-9.09082-13.417-23.44776-16.3125-43.88965-2.16211-15.22021-4.10058-34.915-5.77636-58.67773q-2.05079.34789-4.17774.66406a114.26353,114.26353,0,0,1-15.96484,1.53076,22.48322,22.48322,0,0,1-16.28516-6.51465A21.99572,21.99572,0,0,1,733.5957,398.898a22.5128,22.5128,0,0,1,2.26758-10.168,16.03482,16.03482,0,0,1,11.3711-8.79687l.458-.09229.46485-.05615c8.92382-1.07715,15.32031-1.74512,19.53515-2.03906l5.959-.69288c-.75977-23.4541-1.52539-43.85253-2.28614-60.91211l-16.56933.35743a19.27542,19.27542,0,0,1-14.10645-5.53516,17.90481,17.90481,0,0,1-5.49414-12.86475c0-5.70117,2.13281-19.4956,21.88574-24.44043l.47071-.11767.47851-.07959c3.32032-.55127,7.54395-1.17529,12.55371-1.854,2.5879-.34766,4.58106-.5879,6.14551-.75391,8.10742-7.13428,16.30078-8.7544,22.06641-8.7544a14.25858,14.25858,0,0,1,11.47168,5.95166c15.40722-.97753,33.30762-2.80468,53.35937-5.44873,15.47657-2.062,39.96485-7.09961,72.76856-14.97168l16.31738-3.53125h1.28223c9.27148,0,16,7.06543,16,16.79981,0,4.4751-1.70117,12.87451-13.07324,18.94629-8.04981,4.45459-19.86817,8.95654-36.125,13.76172-15.64649,4.6289-28.75977,7.95459-38.97364,9.88379-15.66113,2.97412-31.64746,5.37548-47.50488,7.13525-7.82715.87158-14.24219,1.55615-19.3125,2.06006.249,11.84619.57812,24.05029.98242,36.42041.25977,8.01953.48926,14.83838.6875,20.41894,8.96484-1.39257,20.06738-3.27783,33.19727-5.6372l15.35351-2.42676c14.53223-2.54688,25.62793-7.01807,32.97949-13.291l.209-.17773.21582-.168c7.32715-5.69531,12.64062-8.12549,17.76465-8.12549,6.09961,0,11.52734,3.21826,14.8916,8.8291A23.778,23.778,0,0,1,934.7959,360.898c0,12.9248-12.88379,21.25732-22.5752,26.3999a144.64778,144.64778,0,0,1-38.9414,13.74121c-11.1416,2.44239-23.73242,4.76856-37.42676,6.91455q-9.59766,1.50879-16.21777,2.5c1.69531,35.22217,5.416,62.62989,11.08984,81.70459a120.42828,120.42828,0,0,0,15.17285,3.4917,176.956,176.956,0,0,0,26.89844,1.64893,109.52245,109.52245,0,0,0,30.28222-4.13281c9.3545-2.687,16.84766-5.959,22.2754-9.72608a22.16822,22.16822,0,0,0,4.54492-3.88867,4.69879,4.69879,0,0,0-.24512-.79688,27.58019,27.58019,0,0,0-2.1377-4.14111c-.52539-.77832-1.31933-1.93994-2.39355-3.49414-2.63965-3.811-3.92676-7.41992-3.92676-11.021,0-2.67187,1.00293-16,20.79981-16a25.90581,25.90581,0,0,1,20.13281,9.61573,30.00053,30.00053,0,0,1,7.46777,19.58447c0,11.60352-4.90136,22.81543-14.56836,33.32373-8.79589,9.57129-20.78613,17.3916-35.63379,23.24121C904.85059,535.59277,888.63379,538.49805,871.19531,538.49805Z"/></svg>